<svg width="20" height="20" viewBox="0 0 14 14" fill="none" xmlns="http://www.w3.org/2000/svg">
<path d="M7.11403 4.89879L7.43803 5.65661C7.45999 5.72251 7.5204 5.76095 7.58081 5.76644L8.40453 5.84332C8.58025 5.8598 8.64615 6.07396 8.51985 6.18928L7.89931 6.73294C7.84989 6.77687 7.82792 6.84277 7.8444 6.90317L8.02561 7.71042C8.06405 7.88066 7.88284 8.01245 7.72908 7.92459L7.02068 7.50174C6.96576 7.4688 6.89437 7.4688 6.83946 7.50174L6.13106 7.92459C5.98279 8.01245 5.79608 7.88066 5.83452 7.71042L6.01574 6.90317C6.03221 6.84277 6.01025 6.77687 5.96082 6.73294L5.34029 6.18928C5.20849 6.07396 5.27988 5.8598 5.45561 5.84332L6.27933 5.76644C6.34523 5.76095 6.40014 5.72251 6.4276 5.6621L6.7516 4.90428C6.81749 4.73954 7.04264 4.73954 7.11403 4.89879Z" stroke="#F0C932" stroke-width="0.549146" stroke-miterlimit="10" stroke-linecap="round" stroke-linejoin="round"/>
<path d="M10.6655 6.50485C10.6797 4.44252 9.01937 2.75915 6.95703 2.74496C4.89469 2.73077 3.21132 4.39112 3.19713 6.45346C3.18294 8.5158 4.84329 10.1992 6.90563 10.2134C8.96797 10.2275 10.6513 8.56719 10.6655 6.50485Z" stroke="#F0C932" stroke-width="0.549146" stroke-miterlimit="10" stroke-linecap="round" stroke-linejoin="round"/>
<path d="M6.42208 10.1761L5.49402 12.51L4.31885 11.1645L2.5451 11.3293L3.72028 8.38586" stroke="#F0C932" stroke-width="0.549146" stroke-miterlimit="10" stroke-linecap="round" stroke-linejoin="round"/>
<path d="M7.43254 10.1761L8.36609 12.51L9.53577 11.1645L11.315 11.3293L10.1343 8.38586" stroke="#F0C932" stroke-width="0.549146" stroke-miterlimit="10" stroke-linecap="round" stroke-linejoin="round"/>
</svg>
